HIERARCHY
ROOT Hips
{
  OFFSET -20.5658 98.029 -61.796
  CHANNELS 6 Xposition Yposition Zposition Zrotation Xrotation Yrotation
  JOINT RightUpLeg
  {
    OFFSET -8.9458 -8.66707 0.101652
    CHANNELS 3 Zrotation Xrotation Yrotation
    JOINT RightLeg
    {
      OFFSET 0 -44.4227 1.3727
      CHANNELS 3 Zrotation Xrotation Yrotation
      JOINT RightFoot
      {
        OFFSET 0.253549 -42.0924 -1.46059
        CHANNELS 3 Zrotation Xrotation Yrotation
        JOINT RightToes
        {
          OFFSET 0.04 -4.41509 8.4991
          CHANNELS 3 Zrotation Xrotation Yrotation
          End Site
          {
            OFFSET -0.08 -0.137448 9.77979
          }
        }
      }
    }
  }
  JOINT Spine
  {
    OFFSET 0 11.8905 0
    CHANNELS 3 Zrotation Xrotation Yrotation
    JOINT Spine1
    {
      OFFSET 0 25.6574 0.127663
      CHANNELS 3 Zrotation Xrotation Yrotation
      JOINT HEad
      {
        OFFSET 0 8.73416 0.011341
        CHANNELS 3 Zrotation Xrotation Yrotation
        End Site
        {
          OFFSET -0.29 12.7742 2.51395
        }
      }
      JOINT LeftShoulder1
      {
        OFFSET 8.99 -0.362252 -0.22
        CHANNELS 3 Zrotation Xrotation Yrotation
        JOINT LeftArm
        {
          OFFSET 10.2827 -0.00338 0.322123
          CHANNELS 3 Zrotation Xrotation Yrotation
          JOINT LeftForeArm
          {
            OFFSET 32.7669 0.099144 -1.42434
            CHANNELS 3 Zrotation Xrotation Yrotation
            JOINT LeftHand
            {
              OFFSET 27.5643 0.085362 1.02216
              CHANNELS 3 Zrotation Xrotation Yrotation
              End Site
              {
                OFFSET 16.7443 -0.6 1.50291
              }
            }
          }
        }
      }
      JOINT RightShoulder
      {
        OFFSET -8.99 -0.362252 -0.22
        CHANNELS 3 Zrotation Xrotation Yrotation
        JOINT RightArm
        {
          OFFSET -10.2827 -0.00338 0.322123
          CHANNELS 3 Zrotation Xrotation Yrotation
          JOINT RightForeArm
          {
            OFFSET -32.8971 0.099144 -1.42434
            CHANNELS 3 Zrotation Xrotation Yrotation
            JOINT RightHand
            {
              OFFSET -27.4921 0.085362 1.02216
              CHANNELS 3 Zrotation Xrotation Yrotation
              End Site
              {
                OFFSET -16.6312 -0.6 1.50291
              }
            }
          }
        }
      }
    }
  }
  JOINT LeftUpLeg
  {
    OFFSET 8.9458 -8.66707 0.101652
    CHANNELS 3 Zrotation Xrotation Yrotation
    JOINT LeftLeg
    {
      OFFSET 0 -44.4227 1.3727
      CHANNELS 3 Zrotation Xrotation Yrotation
      JOINT LeftFoot
      {
        OFFSET -0.253549 -42.0924 -1.46059
        CHANNELS 3 Zrotation Xrotation Yrotation
        JOINT LeftToes
        {
          OFFSET -0.04 -4.41509 8.4991
          CHANNELS 3 Zrotation Xrotation Yrotation
          End Site
          {
            OFFSET 0.08 -0.047448 9.77979
          }
        }
      }
    }
  }
}
MOTION
Frames:	19
Frame Time:	0.0166667
-18.8921 96.7956 -59.5695 6.31989 8.53797 153.403 -22.5169 10.4614 15.889 50.7045 37.6733 -28.6457 -16.6591 1.98661 -1.36185 0.0462048 0.000533403 0.662642 -1.56143 16.1845 -0.0740718 -0.0306669 0.0326601 0.0722808 12.2319 9.3304 -29.5984 -7.95139e-016 1.59028e-015 -3.18055e-015 -168.727 -49.9294 -149.298 -104.399 43.0303 -15.3041 20.1827 13.557 -26.528 -17.2204 3.50831 19.1392 -31.3684 -79.2003 -74.4734 10.8733 36.6641 71.213 25.4224 37.5215 34.2083 -2.60149 -19.211 -20.3327 -12.1288 14.2948 34.2821 21.4688 -5.36196 1.74057 -1.30767e-009 1.55985e-007 -4.87914e-009 
-18.7119 96.076 -59.5895 6.31879 8.99902 154.008 -22.6624 10.1923 16.1987 52.0861 37.7347 -31.0125 -16.7502 0.735097 -1.05018 0.0462048 0.000533403 0.662642 -2.95084 18.3553 6.33599 -0.0306586 0.0326601 0.0577207 12.3721 5.51853 -33.4043 -3.97569e-016 1.59028e-015 3.18055e-015 -163.304 -47.1825 -142.593 -105.048 43.8046 -15.9566 15.8207 11.524 -24.0062 -23.3212 0.870978 24.5141 -40.9535 -81.1744 -86.3506 10.0358 37.6784 73.25 41.7611 35.2513 23.0228 -2.93248 -20.8109 -19.4249 -13.9085 18.1536 34.5325 23.8333 -7.49037 2.20028 -1.30767e-009 1.55985e-007 -4.87914e-009 
-18.5282 94.1741 -59.8297 6.38065 9.55004 154.496 -23.5146 9.39975 16.9624 56.2966 39.0447 -36.3448 -17.1549 -2.39141 -0.232919 0.0462048 0.000533403 0.662642 -4.78531 20.6928 13.4766 -0.0311887 0.0387101 0.0516507 12.3928 1.44251 -37.8397 7.95139e-016 1.59028e-015 -0 -157.424 -43.4464 -135.349 -106.058 44.139 -16.2789 17.842 11.2724 -25.4383 -23.1158 1.20623 18.5816 63.7396 -84.8482 25.1148 11.3242 37.556 69.9674 26.7046 31.0853 29.861 -2.19494 -24.7779 -18.1349 -19.9097 25.6013 37.7853 26.7963 -12.3325 2.99012 -1.30767e-009 1.55985e-007 -4.87914e-009 
-18.3102 91.4216 -60.2329 6.48463 10.1696 154.898 -24.8649 8.45379 18.068 62.5359 40.7352 -43.7126 -17.5096 -6.77403 0.976708 0.0462048 0.000533403 0.662642 -6.57249 22.5527 19.8556 -0.0046612 -0.01316 -0.0487599 11.9172 -1.85928 -41.7196 -1.39149e-015 -1.59028e-015 7.95139e-016 -152.773 -39.8778 -129.331 -107.196 44.2246 -16.2152 15.6853 10.9647 -23.864 -22.9532 1.73327 13.675 96.1433 -73.7325 65.1728 14.08 36.1273 63.1261 35.3348 38.616 19.6158 -1.79436 -29.4214 -16.7562 -26.5608 34.3614 43.1438 29.1084 -17.8451 3.90628 -1.30767e-009 1.55985e-007 -4.87914e-009 
-18.0348 88.1507 -60.7577 6.60882 10.8268 155.26 -26.5164 7.69044 19.4231 69.8888 42.0941 -52.0477 -17.6304 -11.8171 2.4646 0.0462048 0.000533403 0.662642 -7.96117 23.6751 25.1015 -0.000511273 -0.01247 -0.05183 11.1081 -4.14568 -45.0936 2.20695e-032 -3.18055e-015 3.97569e-016 -149.103 -36.9129 -124.235 -108.239 44.1109 -15.9099 17.1637 11.4298 -24.5213 -22.7249 2.66998 9.57398 99.1918 -60.9893 76.4497 17.4496 32.8474 54.9558 27.9675 30.7831 22.3813 -1.51603 -33.9268 -15.2729 -33.9782 42.672 50.212 31.0412 -23.1642 4.94715 -1.30767e-009 1.55985e-007 -4.87914e-009 
-17.6914 84.6965 -61.3683 6.73183 11.4933 155.63 -28.303 7.33448 20.9523 77.3724 42.7638 -60.2028 -17.4217 -16.9798 4.11238 0.0462048 0.000533403 0.662642 -8.90394 24.2567 29.1747 0.00153884 -0.00883002 -0.04741 10.1455 -5.51878 -47.8213 -1.98785e-016 -3.18055e-015 -1.19271e-015 -146.277 -34.6913 -120.005 -109.109 43.8702 -15.3837 16.0465 11.8318 -23.4391 -22.251 3.87329 6.41614 98.4009 -48.07 84.023 20.4613 28.6041 47.349 27.0002 40.0251 16.9534 -1.31963 -37.9656 -13.7098 -42.2181 49.8731 58.6358 32.7005 -27.9141 6.14398 -1.30767e-009 1.55985e-007 -4.87914e-009 
-17.2797 81.4017 -62.0325 6.83563 12.1446 156.046 -30.0579 7.48005 22.5593 84.0408 42.756 -67.152 -16.9427 -21.7797 5.77019 0.0462048 0.000533403 0.662642 -9.42038 24.4577 32.1164 0.00237904 -0.00332001 -0.0396201 9.16149 -6.15564 -49.8471 -1.32417e-031 3.18055e-015 2.38542e-015 -144.132 -33.2909 -116.584 -109.712 43.5171 -14.8289 17.0345 12.6197 -23.7457 -21.6403 5.18097 4.39325 96.8636 -35.4838 90.7424 22.8055 24.0308 40.6852 27.0905 33.7481 14.66 -1.19147 -41.316 -12.1324 -51.0903 55.625 67.9593 34.1538 -31.9193 7.44164 -1.30767e-009 1.55985e-007 -4.87914e-009 
-16.8052 78.614 -62.7219 6.90594 12.7574 156.525 -31.6025 8.10042 24.0938 89.1529 42.3291 -72.1868 -16.3192 -25.7662 7.24609 0.0462048 0.000533403 0.662642 -9.56972 24.4057 34.0185 0.00571634 0.00393998 -0.0296101 8.22158 -6.23126 -51.1416 -3.97569e-016 0 -0 -142.522 -32.7311 -113.911 -110.051 43.1007 -14.3344 16.4245 13.217 -23.0281 -20.8728 6.52517 3.58502 95.5783 -23.6237 97.2047 24.611 20.0784 34.7905 19.4304 40.025 11.5777 -1.14364 -43.768 -10.6588 -59.8079 59.8055 77.263 35.3907 -35.1069 8.69349 -1.30767e-009 1.55985e-007 -4.87914e-009 
-16.2779 76.6859 -63.4105 6.93338 13.3075 157.065 -32.7414 9.07975 25.3344 92.1969 41.8156 -74.9344 -15.764 -28.5039 8.27657 0.0462048 0.000533403 0.662642 -9.43272 24.1989 34.9968 0.00991181 0.01375 -0.0194708 7.35109 -5.9088 -51.702 1.19271e-015 0 3.18055e-015 -141.335 -32.9789 -111.948 -110.12 42.6401 -14.0227 17.024 13.9311 -23.2401 -19.9564 7.86648 3.80973 95.5008 -13.0592 103.209 26.7195 17.1541 29.508 28.5994 40.0584 8.17726 -1.20161 -45.0918 -9.45224 -66.8155 62.5134 84.8818 36.3541 -37.4125 9.73211 -1.30767e-009 1.55985e-007 -4.87914e-009 
-15.7128 75.973 -64.0702 6.91647 13.7718 157.651 -33.2949 10.2583 26.0311 92.7392 41.4887 -75.1788 -15.5117 -29.5543 8.54814 0.0462048 0.000533403 0.662642 -9.09777 23.9039 35.1714 0.0126298 0.02144 -0.0112703 6.56177 -5.32173 -51.5542 -3.97569e-016 -4.77083e-015 -0 -140.503 -33.9631 -110.634 -110.016 42.1811 -13.8902 16.6922 14.3184 -22.879 -18.994 9.18132 4.65908 98.3282 -5.0869 107.747 26.0418 18.1653 25.4654 35.602 42.8558 -14.173 -1.38468 -45.0266 -8.68778 -70.0173 63.9743 88.567 36.9984 -38.6958 10.4233 -1.30767e-009 1.55985e-007 -4.87915e-009 
-15.0843 76.4438 -64.8078 6.62375 14.2132 159.136 -32.7935 11.9866 26.0348 90.6751 41.3893 -73.3295 -14.9102 -29.1147 7.81241 0.0462048 0.000533403 0.662642 -8.64848 23.5629 34.6526 0.0116199 0.02471 -0.00665029 5.86833 -4.57229 -50.7431 7.95139e-016 -3.18055e-015 -1.59028e-015 -139.983 -35.5458 -109.893 -109.811 41.7724 -13.907 17.0824 14.6834 -23.1735 -17.8007 10.4766 5.66835 100.273 -2.09985 109.302 26.356 15.8066 23.6696 41.518 43.356 -9.57422 -2.24861 -43.5677 -8.65879 -68.6631 64.5639 87.1108 37.7585 -39.1167 10.7767 -1.30767e-009 1.55985e-007 -4.87914e-009 
-14.3989 77.6909 -65.714 5.91963 14.6671 162.054 -31.1117 14.5166 25.3802 86.5504 41.2469 -70.2081 -13.6058 -27.8348 6.16577 0.0462048 0.000533403 0.662642 -8.16799 23.2011 33.5449 0.00348992 0.02491 -0.00455009 5.30577 -3.7399 -49.3292 -1.59028e-015 1.59028e-015 1.59028e-015 -139.734 -37.5245 -109.597 -109.594 41.5064 -13.9457 16.9443 14.6962 -23.1625 -16.7822 11.6713 6.58054 105.755 -4.28113 107.54 27.3506 17.8068 25.46 37.7023 38.7782 -24.6778 -3.91368 -41.0707 -9.25787 -63.9825 64.5139 81.5051 38.934 -39.0213 10.8396 -1.30767e-009 1.55985e-007 -4.87914e-009 
-13.7317 79.51 -66.6918 4.96131 15.0987 165.89 -28.6614 17.5438 24.1558 80.8745 40.7397 -66.1331 -12.0393 -25.8578 3.88419 0.0462048 0.000533403 0.662642 -8.3921 23.8525 31.6513 -0.00499105 0.11748 -0.0494599 4.93165 -4.10831 -46.6757 -8.82781e-032 -1.59028e-015 -3.18055e-015 -140.797 -39.1325 -111.279 -109.486 41.4593 -13.91 17.2162 14.6273 -23.5449 -16.0067 11.34 7.38135 112.277 -9.97116 104.021 28.2696 23.177 30.6254 46.4765 42.1562 -14.286 -5.78048 -37.7773 -10.0545 -57.042 63.6646 72.985 40.2566 -38.4296 10.5185 -1.30767e-009 1.55985e-007 -4.87914e-009 
-13.1274 81.6842 -67.6338 3.89229 15.5458 170.186 -25.7775 20.8118 22.4361 74.3217 39.6661 -61.3861 -10.4364 -23.333 1.22943 0.0462048 0.000533403 0.662642 -8.73127 24.7525 29.501 -0.00507979 0.03415 -0.0212601 4.63181 -4.56389 -43.7773 1.98785e-015 -3.18055e-015 -3.18055e-015 -142.153 -40.7501 -113.258 -109.465 41.5041 -13.8172 17.397 14.4771 -23.8475 -15.5251 10.8532 8.06228 118.722 -16.2306 100.408 27.9621 29.5696 37.9012 46.2894 41.4866 -6.10906 -7.41846 -33.8999 -10.7114 -49.1196 61.955 63.0476 41.4075 -37.3932 9.72503 -1.30767e-009 1.55985e-007 -4.87914e-009 
-12.6315 83.9994 -68.4611 2.86606 15.9718 174.439 -22.764 24.0261 20.3599 67.5932 38.0136 -56.3827 -9.00308 -20.4236 -1.57519 0.0462048 0.000533403 0.662642 -9.12464 25.8663 27.0858 -0.00508336 0.02751 -0.0189501 4.43771 -5.29118 -40.5227 3.57812e-015 3.18055e-015 -0 -143.963 -42.219 -115.749 -109.586 41.6807 -13.6204 17.4503 14.1706 -24.1123 -12.453 11.6158 6.94541 121.994 -20.9519 97.5442 27.1941 36.3162 46.5433 41.9908 37.7496 -0.344351 -8.6121 -29.8127 -11.0924 -41.4531 59.4386 53.2006 42.1583 -36.0002 8.49638 -1.30767e-009 1.55985e-007 -4.87914e-009 
-12.2805 86.2283 -69.1211 2.03487 16.3379 178.14 -19.8314 26.9387 18.1119 61.5726 36.2236 -51.9756 -7.90989 -17.1884 -4.30385 0.0462048 0.000533403 0.662642 -9.51738 27.1674 24.3901 -0.00508317 0.0263 -0.0202468 4.34886 -6.18297 -36.9382 -7.95139e-016 -4.77083e-015 -3.18055e-015 -145.074 -43.374 -116.984 -109.043 43.0251 -13.7988 17.2953 13.6904 -24.305 -7.80697 12.9212 4.36171 123.09 -24.1044 95.145 26.1462 42.3189 55.1259 35.6042 32.7355 3.62906 -9.31516 -25.9345 -11.1803 -34.92 56.405 44.6309 42.3865 -34.401 7.00457 -1.30768e-009 1.55985e-007 -4.87914e-009 
-12.0234 88.0168 -69.5365 1.45915 16.6228 -179.207 -17.6785 28.8923 16.2782 56.3848 33.5371 -48.7828 -7.37932 -14.5029 -6.39463 0.0462048 0.000533403 0.662642 -9.91454 28.4684 21.3324 -0.00508674 0.01426 -0.0229768 4.39966 -6.58569 -32.6943 7.95139e-016 -1.59028e-015 3.18055e-015 -145.297 -45.3056 -117.241 -107.604 45.4251 -15.2469 16.3641 16.8396 -18.3405 -2.02456 12.9474 0.557864 122.374 -24.7763 90.8112 24.4347 46.2636 61.8716 28.7717 27.148 8.97292 -9.14458 -22.6427 -11.2792 -30.4946 53.1387 38.9474 41.549 -32.6839 5.28564 -1.30767e-009 1.55985e-007 -4.87914e-009 
-11.958 89.3988 -69.6974 1.24107 16.7838 -178.105 -16.5902 29.8866 15.2463 52.2217 30.5296 -46.8735 -7.49501 -12.3929 -7.69651 0.0462048 0.000533403 0.662642 -10.317 29.7278 17.9305 -0.00508659 0.01349 -0.0249201 4.46801 -6.51447 -27.8444 -2.38542e-015 -1.59028e-015 -3.18055e-015 -144.907 -48.0387 -116.71 -105.175 48.645 -18.2277 14.491 22.163 -9.34792 4.61901 11.6396 -3.77321 119.219 -23.5093 85.9746 23.728 48.4601 64.1063 21.756 20.4443 14.8953 -7.6259 -20.5569 -11.4294 -28.6251 50.7255 35.9859 35.105 -30.491 2.2256 -1.30767e-009 1.55985e-007 -4.87914e-009 
-12.077 90.4446 -69.4879 1.31893 16.8205 -178.405 -16.376 30.149 14.9343 48.8592 27.5402 -46.0252 -8.14312 -10.7386 -8.22511 0.0462048 0.000533403 0.662642 -10.7075 30.9223 14.1906 -0.00508618 0.01467 -0.0245501 4.4219 -5.97896 -22.4306 -7.95139e-016 -4.77083e-015 -0 -145.579 -51.0532 -117.488 -102.567 51.3971 -21.5836 13.1464 24.9824 -4.56576 11.7346 9.02603 -8.03868 114.29 -20.9599 80.7834 24.0326 49.7012 63.2922 19.9014 17.4524 18.3926 -5.15471 -19.2902 -11.7544 -28.0693 48.8719 35.3138 25.3794 -27.7298 -1.11772 -1.30767e-009 1.55985e-007 -4.87914e-009 
